<?xml version="1.0" encoding="utf-8"?>
<svg id="master-artboard" viewBox="0 0 1080 1080" version="1.1" xmlns="http://www.w3.org/2000/svg" x="0px" y="0px" style="enable-background:new 0 0 1400 980;" width="1080px" height="1080px"><defs><style id="ee-google-fonts">@import url(https://fonts.googleapis.com/css?family=Acme:400|Comfortaa:300,400,700);</style></defs><rect id="ee-background" x="0" y="0" width="1080" height="1080" style="fill: white; fill-opacity: 0; pointer-events: none;"/><path d="M 267.88531494140625 363.0690612792969 C 267.88531494140625 361.5623779296875 268.4219665527344 360.27239990234375 269.49530029296875 359.1990661621094 C 270.5619812011719 358.13238525390625 271.8486328125 357.59906005859375 273.3553161621094 357.59906005859375 C 274.8553161621094 357.59906005859375 276.1419677734375 358.13238525390625 277.2153015136719 359.1990661621094 C 278.28863525390625 360.27239990234375 278.8253173828125 361.5623779296875 278.8253173828125 363.0690612792969 L 278.8253173828125 367.5090637207031 C 285.6586608886719 360.90240478515625 293.8619689941406 357.59906005859375 303.435302734375 357.59906005859375 C 313.2286376953125 357.59906005859375 321.60198974609375 361.0723876953125 328.5552978515625 368.01904296875 C 335.5019836425781 374.9723815917969 338.9753112792969 383.3457336425781 338.9753112792969 393.1390686035156 L 338.9753112792969 428.6890563964844 C 338.9753112792969 430.1957092285156 338.4419860839844 431.4823913574219 337.37530517578125 432.549072265625 C 336.3019714355469 433.6224060058594 335.011962890625 434.1590576171875 333.50531005859375 434.1590576171875 C 332.00531005859375 434.1590576171875 330.7186584472656 433.6224060058594 329.64532470703125 432.549072265625 C 328.5786437988281 431.4823913574219 328.0453186035156 430.1957092285156 328.0453186035156 428.6890563964844 L 328.0453186035156 393.1390686035156 C 328.0453186035156 386.3523864746094 325.6386413574219 380.55572509765625 320.8253173828125 375.7490539550781 C 316.0186462402344 370.93572998046875 310.22198486328125 368.529052734375 303.435302734375 368.529052734375 C 296.6419677734375 368.529052734375 290.84197998046875 370.93572998046875 286.0353088378906 375.7490539550781 C 281.2286376953125 380.55572509765625 278.8253173828125 386.3523864746094 278.8253173828125 393.1390686035156 L 278.8253173828125 428.6890563964844 C 278.8253173828125 430.1957092285156 278.28863525390625 431.4823913574219 277.2153015136719 432.549072265625 C 276.1419677734375 433.6224060058594 274.8553161621094 434.1590576171875 273.3553161621094 434.1590576171875 C 271.8486328125 434.1590576171875 270.5619812011719 433.6224060058594 269.49530029296875 432.549072265625 C 268.4219665527344 431.4823913574219 267.88531494140625 430.1957092285156 267.88531494140625 428.6890563964844 L 267.88531494140625 363.0690612792969 ZM 388.194091796875 423.21905517578125 C 395.7607421875 423.21905517578125 402.21075439453125 420.5523986816406 407.5440979003906 415.21905517578125 C 412.8707580566406 409.89239501953125 415.5340881347656 403.44573974609375 415.5340881347656 395.8790588378906 C 415.5340881347656 388.3123779296875 412.8707580566406 381.8623962402344 407.5440979003906 376.529052734375 C 402.21075439453125 371.19573974609375 395.7607421875 368.529052734375 388.194091796875 368.529052734375 C 380.62744140625 368.529052734375 374.17742919921875 371.19573974609375 368.8440856933594 376.529052734375 C 363.5174255371094 381.8623962402344 360.8540954589844 388.3123779296875 360.8540954589844 395.8790588378906 C 360.8540954589844 403.44573974609375 363.5174255371094 409.89239501953125 368.8440856933594 415.21905517578125 C 374.17742919921875 420.5523986816406 380.62744140625 423.21905517578125 388.194091796875 423.21905517578125 M 360.8540954589844 369.07904052734375 C 360.9407653808594 368.9924011230469 361.03076171875 368.90240478515625 361.12408447265625 368.8090515136719 C 368.597412109375 361.3357238769531 377.6207580566406 357.59906005859375 388.194091796875 357.59906005859375 C 398.7674255371094 357.59906005859375 407.790771484375 361.3357238769531 415.26409912109375 368.8090515136719 C 422.7374267578125 376.2823791503906 426.4740905761719 385.30572509765625 426.4740905761719 395.8790588378906 C 426.4740905761719 406.452392578125 422.7374267578125 415.4757385253906 415.26409912109375 422.9490661621094 C 407.790771484375 430.4223937988281 398.7674255371094 434.1590576171875 388.194091796875 434.1590576171875 C 377.6207580566406 434.1590576171875 368.597412109375 430.4223937988281 361.12408447265625 422.9490661621094 C 353.6507568359375 415.4757385253906 349.9140930175781 406.452392578125 349.9140930175781 395.8790588378906 L 349.9140930175781 330.1190490722656 C 349.9140930175781 328.6123962402344 350.45074462890625 327.3223876953125 351.5240783691406 326.2490539550781 C 352.59075927734375 325.182373046875 353.8774108886719 324.6490478515625 355.38409423828125 324.6490478515625 C 356.88409423828125 324.6490478515625 358.1707458496094 325.182373046875 359.24407958984375 326.2490539550781 C 360.3174133300781 327.3223876953125 360.8540954589844 328.6123962402344 360.8540954589844 330.1190490722656 L 360.8540954589844 369.07904052734375 Z" transform="matrix(6.1546430587768555, 0, 0, 6.1546430587768555, -1597.4906005859375, -1796.775390625)" style="fill: rgb(104, 117, 245); white-space: pre; color: rgb(51, 51, 51);"/></svg>